<?xml version="1.0" encoding="iso-8859-1"?>
<!-- Generator: Adobe Illustrator 19.0.0, SVG Export Plug-In . SVG Version: 6.00 Build 0)  -->
<svg version="1.1" id="Layer_1" xmlns="http://www.w3.org/2000/svg" xmlns:xlink="http://www.w3.org/1999/xlink" x="0px" y="0px"
	 viewBox="0 0 511.187 511.187" style="enable-background:new 0 0 511.187 511.187;" xml:space="preserve">
<g transform="translate(1 1)">
	<g>
		<g>
			<path d="M101.4,374.06c-9.387,0-17.067,7.68-17.067,17.067s7.68,17.067,17.067,17.067c9.387,0,17.067-7.68,17.067-17.067
				S110.787,374.06,101.4,374.06z"/>
			<path d="M408.6,374.06c-9.387,0-17.067,7.68-17.067,17.067s7.68,17.067,17.067,17.067s17.067-7.68,17.067-17.067
				S417.987,374.06,408.6,374.06z"/>
			<path d="M510.147,372.354v-79.36V248.62c0-14.507-11.947-27.307-27.307-27.307H447l-0.853-0.853l-6.827-8.533l-49.493-62.293
				c-7.68-9.387-17.92-14.507-29.867-14.507H331.8h-34.133v-43.52c0-18.773-14.507-33.28-32.427-33.28H32.28
				C13.507,58.327-1,72.834-1,91.607v188.587v17.067v76.8c0,14.507,11.093,25.6,25.6,25.6h17.669
				c4.075,29.155,28.753,51.2,59.131,51.2c30.378,0,55.056-22.045,59.131-51.2H280.6h17.067h51.803
				c4.075,29.155,28.753,51.2,59.131,51.2s55.056-22.045,59.131-51.2h15.109C498.2,399.66,511,386.86,510.147,372.354z
				 M348.867,152.193h11.947c5.973,0,11.947,2.56,16.213,7.68l28.16,34.987h-1.707h-48.64c-3.413,0-5.973-2.56-5.973-5.973V152.193z
				 M16.067,91.607c0-9.387,6.827-16.213,16.213-16.213h232.107c9.387,0,16.213,7.68,16.213,16.213v43.52v145.067H16.067V91.607z
				 M101.4,433.794c-23.893,0-42.667-18.773-42.667-42.667c0-23.893,18.773-42.667,42.667-42.667
				c23.893,0,42.667,18.773,42.667,42.667C144.067,415.02,125.293,433.794,101.4,433.794z M280.6,382.594H160.531
				c-3.821-27.339-25.761-48.416-53.528-50.936c-0.203-0.019-0.409-0.029-0.613-0.046c-0.699-0.056-1.397-0.114-2.103-0.147
				c-0.957-0.046-1.919-0.072-2.887-0.072s-1.93,0.026-2.887,0.072c-0.706,0.033-1.404,0.09-2.103,0.147
				c-0.204,0.017-0.41,0.027-0.613,0.046c-27.767,2.52-49.707,23.597-53.528,50.936H24.6c-5.12,0-8.533-3.413-8.533-8.533v-76.8
				H280.6V382.594z M408.6,433.794c-23.893,0-42.667-18.773-42.667-42.667c0-23.893,18.773-42.667,42.667-42.667
				c23.893,0,42.667,18.773,42.667,42.667C451.267,415.02,432.493,433.794,408.6,433.794z M493.08,280.194H357.4
				c-5.12,0-8.533,3.413-8.533,8.533c0,5.12,3.413,8.533,8.533,8.533h135.68v74.24c0,5.973-4.267,11.093-10.24,11.093h-15.109
				c-4.075-29.155-28.753-51.2-59.131-51.2c-30.673,0-55.529,22.477-59.237,52.053h-51.696V297.26v-17.067V153.047H331.8v35.84
				c0,12.8,10.24,23.04,23.04,23.04h62.293l15.36,19.627c3.413,4.267,8.533,6.827,14.507,6.827h35.84
				c5.12,0,10.24,4.267,10.24,10.24V280.194z"/>
			<path d="M189.293,152.193h-19.627v-19.627c0-8.533-5.973-14.507-13.653-14.507h-23.04c-8.533,0-14.507,5.973-14.507,14.507
				v18.773H98.84c-8.533,0-14.507,6.827-14.507,14.507v23.04c0,8.533,5.973,14.507,13.653,14.507h19.627v19.627
				c0,8.533,6.827,14.507,14.507,14.507h23.04c8.533,0,14.507-5.973,14.507-13.653v-19.627h19.627
				c8.533,0,14.507-6.827,14.507-14.507V166.7C203.8,158.167,196.973,152.193,189.293,152.193z M186.733,186.327h-19.627
				c-8.533,0-14.507,6.827-14.507,14.507v19.627h-17.067v-19.627c0-8.533-6.827-14.507-14.507-14.507H101.4V169.26h19.627
				c8.533,0,14.507-6.827,14.507-14.507v-19.627H152.6v19.627c0,8.533,6.827,14.507,14.507,14.507h19.627V186.327z"/>
		</g>
	</g>
</g>
<g>
</g>
<g>
</g>
<g>
</g>
<g>
</g>
<g>
</g>
<g>
</g>
<g>
</g>
<g>
</g>
<g>
</g>
<g>
</g>
<g>
</g>
<g>
</g>
<g>
</g>
<g>
</g>
<g>
</g>
</svg>
